REM DIRINDEX 1\2\3,1\2\4,1\2\5,1\2\6
REM DIRNAME cjc157,folder01,folder02,folder03,folder04,folder05
TITLE ""
FILE "034 034.mp3" MP3
  TRACK 01 AUDIO
    TITLE "0:"
    INDEX 01 00:00:00
  TRACK 02 AUDIO
    TITLE "3:cjc157_1287"
    INDEX 01 00:00:11
  TRACK 03 AUDIO
    TITLE "0:"
    INDEX 01 00:01:46
  TRACK 04 AUDIO
    TITLE "4:cjc157_1288"
    INDEX 01 00:02:18
  TRACK 05 AUDIO
    TITLE "0:"
    INDEX 01 00:03:43
  TRACK 06 AUDIO
    TITLE "5:cjc157_1289"
    INDEX 01 00:04:13
  TRACK 07 AUDIO
    TITLE "0:"
    INDEX 01 00:07:05
  TRACK 08 AUDIO
    TITLE "5:cjc157_1290"
    INDEX 01 00:07:52
  TRACK 09 AUDIO
    TITLE "0:"
    INDEX 01 00:11:42
  TRACK 10 AUDIO
    TITLE "3:cjc157_1291"
    INDEX 01 00:12:12
  TRACK 11 AUDIO
    TITLE "0:"
    INDEX 01 00:13:47
  TRACK 12 AUDIO
    TITLE "4:cjc157_1292"
    INDEX 01 00:14:17
  TRACK 13 AUDIO
    TITLE "0:"
    INDEX 01 00:15:30
  TRACK 14 AUDIO
    TITLE "5:cjc157_1293"
    INDEX 01 00:15:74
  TRACK 15 AUDIO
    TITLE "0:"
    INDEX 01 00:18:05
  TRACK 16 AUDIO
    TITLE "5:cjc157_1294"
    INDEX 01 00:18:48
  TRACK 17 AUDIO
    TITLE "0:"
    INDEX 01 00:20:73
  TRACK 18 AUDIO
    TITLE "3:cjc157_1295"
    INDEX 01 00:21:47
  TRACK 19 AUDIO
    TITLE "0:"
    INDEX 01 00:22:64
  TRACK 20 AUDIO
    TITLE "4:cjc157_1296"
    INDEX 01 00:23:36
  TRACK 21 AUDIO
    TITLE "0:"
    INDEX 01 00:24:45
  TRACK 22 AUDIO
    TITLE "5:cjc157_1297"
    INDEX 01 00:25:15
  TRACK 23 AUDIO
    TITLE "0:"
    INDEX 01 00:26:56
  TRACK 24 AUDIO
    TITLE "5:cjc157_1298"
    INDEX 01 00:27:26
  TRACK 25 AUDIO
    TITLE "0:"
    INDEX 01 00:28:72
  TRACK 26 AUDIO
    TITLE "3:cjc157_1299"
    INDEX 01 00:29:44
  TRACK 27 AUDIO
    TITLE "0:"
    INDEX 01 00:31:06
  TRACK 28 AUDIO
    TITLE "4:cjc157_1300"
    INDEX 01 00:31:53
  TRACK 29 AUDIO
    TITLE "0:"
    INDEX 01 00:32:62
  TRACK 30 AUDIO
    TITLE "5:cjc157_1301"
    INDEX 01 00:33:32
  TRACK 31 AUDIO
    TITLE "0:"
    INDEX 01 00:37:30
  TRACK 32 AUDIO
    TITLE "3:cjc157_1302"
    INDEX 01 00:38:02
  TRACK 33 AUDIO
    TITLE "0:"
    INDEX 01 00:39:37
  TRACK 34 AUDIO
    TITLE "4:cjc157_1303"
    INDEX 01 00:40:09
  TRACK 35 AUDIO
    TITLE "0:"
    INDEX 01 00:41:16
  TRACK 36 AUDIO
    TITLE "5:cjc157_1304"
    INDEX 01 00:41:65
  TRACK 37 AUDIO
    TITLE "0:"
    INDEX 01 00:44:32
  TRACK 38 AUDIO
    TITLE "5:cjc157_1305"
    INDEX 01 00:44:63
  TRACK 39 AUDIO
    TITLE "0:"
    INDEX 01 00:48:12
  TRACK 40 AUDIO
    TITLE "3:cjc157_1306"
    INDEX 01 00:48:59
  TRACK 41 AUDIO
    TITLE "0:"
    INDEX 01 00:50:29
  TRACK 42 AUDIO
    TITLE "4:cjc157_1307"
    INDEX 01 00:50:70
  TRACK 43 AUDIO
    TITLE "0:"
    INDEX 01 00:52:04
  TRACK 44 AUDIO
    TITLE "5:cjc157_1308"
    INDEX 01 00:52:53
  TRACK 45 AUDIO
    TITLE "0:"
    INDEX 01 00:54:50
  TRACK 46 AUDIO
    TITLE "5:cjc157_1309"
    INDEX 01 00:55:20
  TRACK 47 AUDIO
    TITLE "0:"
    INDEX 01 00:57:37
  TRACK 48 AUDIO
    TITLE "5:cjc157_1310"
    INDEX 01 00:58:07
  TRACK 49 AUDIO
    TITLE "0:"
    INDEX 01 00:59:73
  TRACK 50 AUDIO
    TITLE "3:cjc157_1311"
    INDEX 01 01:00:43
  TRACK 51 AUDIO
    TITLE "0:"
    INDEX 01 01:02:14
  TRACK 52 AUDIO
    TITLE "4:cjc157_1312"
    INDEX 01 01:02:55
  TRACK 53 AUDIO
    TITLE "0:"
    INDEX 01 01:03:67
  TRACK 54 AUDIO
    TITLE "5:cjc157_1313"
    INDEX 01 01:04:43
  TRACK 55 AUDIO
    TITLE "0:"
    INDEX 01 01:08:19
  TRACK 56 AUDIO
    TITLE "5:cjc157_1314"
    INDEX 01 01:08:64
  TRACK 57 AUDIO
    TITLE "0:"
    INDEX 01 01:10:04
  TRACK 58 AUDIO
    TITLE "3:cjc157_1315"
    INDEX 01 01:10:49
  TRACK 59 AUDIO
    TITLE "0:"
    INDEX 01 01:12:24
  TRACK 60 AUDIO
    TITLE "4:cjc157_1316"
    INDEX 01 01:12:70
  TRACK 61 AUDIO
    TITLE "0:"
    INDEX 01 01:14:12
  TRACK 62 AUDIO
    TITLE "5:cjc157_1317"
    INDEX 01 01:14:53
  TRACK 63 AUDIO
    TITLE "0:"
    INDEX 01 01:17:35
  TRACK 64 AUDIO
    TITLE "5:cjc157_1318"
    INDEX 01 01:18:06
  TRACK 65 AUDIO
    TITLE "0:"
    INDEX 01 01:20:08
  TRACK 66 AUDIO
    TITLE "3:cjc157_1319"
    INDEX 01 01:20:55
  TRACK 67 AUDIO
    TITLE "0:"
    INDEX 01 01:22:17
  TRACK 68 AUDIO
    TITLE "4:cjc157_1320"
    INDEX 01 01:22:64
  TRACK 69 AUDIO
    TITLE "0:"
    INDEX 01 01:24:06
  TRACK 70 AUDIO
    TITLE "5:cjc157_1321"
    INDEX 01 01:24:53
  TRACK 71 AUDIO
    TITLE "0:"
    INDEX 01 01:27:36
  TRACK 72 AUDIO
    TITLE "5:cjc157_1322"
    INDEX 01 01:28:08
  TRACK 73 AUDIO
    TITLE "0:"
    INDEX 01 01:30:11
  TRACK 74 AUDIO
    TITLE "3:cjc157_1323"
    INDEX 01 01:30:66
  TRACK 75 AUDIO
    TITLE "0:"
    INDEX 01 01:32:31
  TRACK 76 AUDIO
    TITLE "4:cjc157_1324"
    INDEX 01 01:33:03
  TRACK 77 AUDIO
    TITLE "0:"
    INDEX 01 01:34:05
  TRACK 78 AUDIO
    TITLE "5:cjc157_1325"
    INDEX 01 01:34:54
  TRACK 79 AUDIO
    TITLE "0:"
    INDEX 01 01:36:33
  TRACK 80 AUDIO
    TITLE "5:cjc157_1326"
    INDEX 01 01:37:03
  TRACK 81 AUDIO
    TITLE "0:"
    INDEX 01 01:38:59
  TRACK 82 AUDIO
    TITLE "5:cjc157_1327"
    INDEX 01 01:39:27
  TRACK 83 AUDIO
    TITLE "0:"
    INDEX 01 01:42:02
